<svg
  width="26"
  height="26"
  viewBox="0 0 26 26"
  fill="none"
  xmlns="http://www.w3.org/2000/svg"
>
<path
    fill-rule="evenodd"
    clip-rule="evenodd"
    d="M10.3567 5.2002C9.88279 5.2002 9.49865 5.57773 9.49865 6.04344V6.74614H8.68832C7.24041 6.74614 6.06665 7.89971 6.06665 9.32272V18.2236C6.06665 19.6466 7.24041 20.8002 8.68832 20.8002H17.745C19.1929 20.8002 20.3667 19.6466 20.3667 18.2236V9.32272C20.3667 7.89971 19.1929 6.74614 17.745 6.74614H16.9347V6.04344C16.9347 5.57773 16.5505 5.2002 16.0767 5.2002C15.6028 5.2002 15.2187 5.57773 15.2187 6.04344V6.74614H11.2147V6.04344C11.2147 5.57773 10.8305 5.2002 10.3567 5.2002ZM9.49865 8.15155V8.85425C9.49865 9.31996 9.88279 9.69749 10.3567 9.69749C10.8305 9.69749 11.2147 9.31996 11.2147 8.85425V8.15155H15.2187V8.85425C15.2187 9.31996 15.6028 9.69749 16.0767 9.69749C16.5505 9.69749 16.9347 9.31996 16.9347 8.85425V8.15155H17.745C18.4031 8.15155 18.9367 8.6759 18.9367 9.32272V10.8218H7.49665V9.32272C7.49665 8.6759 8.03018 8.15155 8.68832 8.15155H9.49865ZM7.49665 12.3209V18.2236C7.49665 18.8704 8.03018 19.3948 8.68832 19.3948H17.745C18.4031 19.3948 18.9367 18.8704 18.9367 18.2236V12.3209H7.49665Z"
    fill="#737373"
  />
</svg>
