<?xml version="1.0" encoding="UTF-8"?>
<svg width="18px" height="18px" viewBox="0 0 18 18" version="1.1" xmlns="http://www.w3.org/2000/svg"
    xmlns:xlink="http://www.w3.org/1999/xlink">
    <g id="Symbols" stroke="none" stroke-width="1" fill="none" fill-rule="evenodd">
        <g id="clock" fill="#DDDDDD" fill-rule="nonzero">
            <path
                d="M9,0 C4.03725,0 0,4.03725 0,9 C0,13.96275 4.03725,18 9,18 C13.96275,18 18,13.96275 18,9 C18,4.03725 13.96275,0 9,0 Z M13.28025,13.65525 C13.134,13.8015 12.942,13.875 12.75,13.875 C12.558,13.875 12.366,13.8015 12.21975,13.65525 L8.46975,9.90525 C8.32875,9.765 8.25,9.5745 8.25,9.375 L8.25,4.5 C8.25,4.08525 8.586,3.75 9,3.75 C9.414,3.75 9.75,4.08525 9.75,4.5 L9.75,9.0645 L13.28025,12.59475 C13.5735,12.888 13.5735,13.362 13.28025,13.65525 Z"
                id="Shape"></path>
        </g>
    </g>
</svg>